<svg width="1037" height="150" viewBox="0 0 1037 150" fill="none" xmlns="http://www.w3.org/2000/svg">
    <path d="M88.428 148V82.916H19.952V148H0.448V1.932H19.952V65.108H88.428V1.932H108.356V148H88.428ZM238.776 100.3C238.776 107.791 237.362 114.575 234.536 120.652C231.85 126.729 228.034 131.888 223.088 136.128C218.282 140.368 212.558 143.689 205.916 146.092C199.414 148.353 192.348 149.484 184.716 149.484C176.801 149.484 169.522 148.353 162.88 146.092C156.237 143.689 150.513 140.368 145.708 136.128C141.044 131.888 137.369 126.729 134.684 120.652C132.14 114.575 130.868 107.791 130.868 100.3V49.844C130.868 42.4947 132.14 35.7813 134.684 29.704C137.369 23.6267 141.044 18.468 145.708 14.228C150.513 9.84666 156.237 6.45466 162.88 4.052C169.522 1.64933 176.801 0.447992 184.716 0.447992C192.489 0.447992 199.697 1.64933 206.34 4.052C212.982 6.45466 218.706 9.84666 223.512 14.228C228.317 18.468 232.062 23.6267 234.748 29.704C237.433 35.7813 238.776 42.4947 238.776 49.844V100.3ZM219.06 52.176C219.06 46.24 218.141 41.152 216.304 36.912C214.466 32.672 211.993 29.2093 208.884 26.524C205.774 23.6973 202.1 21.648 197.86 20.376C193.761 19.104 189.38 18.468 184.716 18.468C180.052 18.468 175.6 19.104 171.36 20.376C167.261 21.648 163.657 23.6973 160.548 26.524C157.58 29.2093 155.177 32.672 153.34 36.912C151.502 41.152 150.584 46.24 150.584 52.176V97.968C150.584 103.904 151.502 108.992 153.34 113.232C155.177 117.472 157.65 120.935 160.76 123.62C163.869 126.305 167.473 128.284 171.572 129.556C175.812 130.828 180.193 131.464 184.716 131.464C189.38 131.464 193.761 130.828 197.86 129.556C201.958 128.284 205.562 126.305 208.672 123.62C211.922 120.935 214.466 117.472 216.304 113.232C218.141 108.992 219.06 103.904 219.06 97.968V52.176ZM322.575 1.932C329.925 1.932 336.214 3.27466 341.443 5.96C346.673 8.504 350.983 11.896 354.375 16.136C357.767 20.2347 360.241 24.8987 361.795 30.128C363.35 35.216 364.127 40.3747 364.127 45.604C364.127 49.7027 363.562 53.8013 362.431 57.9C361.301 61.8573 359.605 65.6027 357.343 69.136C355.082 72.6693 352.326 75.92 349.075 78.888C345.966 81.7147 342.362 83.976 338.263 85.672L365.611 148H343.987L319.183 89.276H281.447V148H261.943V1.932H322.575ZM344.623 45.604C344.623 37.6893 342.15 31.4 337.203 26.736C332.398 22.072 326.179 19.74 318.547 19.74H281.447V71.256H318.547C326.179 71.256 332.398 68.9947 337.203 64.472C342.15 59.9493 344.623 53.66 344.623 45.604ZM388.14 148V1.932H407.644V148H388.14ZM528.05 18.68L455.122 130.404H527.838V148H432.438V130.828L504.518 19.74H435.406V1.932H528.05V18.68ZM654.495 100.3C654.495 107.791 653.081 114.575 650.255 120.652C647.569 126.729 643.753 131.888 638.807 136.128C634.001 140.368 628.277 143.689 621.635 146.092C615.133 148.353 608.067 149.484 600.435 149.484C592.52 149.484 585.241 148.353 578.599 146.092C571.956 143.689 566.232 140.368 561.427 136.128C556.763 131.888 553.088 126.729 550.403 120.652C547.859 114.575 546.587 107.791 546.587 100.3V49.844C546.587 42.4947 547.859 35.7813 550.403 29.704C553.088 23.6267 556.763 18.468 561.427 14.228C566.232 9.84666 571.956 6.45466 578.599 4.052C585.241 1.64933 592.52 0.447992 600.435 0.447992C608.208 0.447992 615.416 1.64933 622.059 4.052C628.701 6.45466 634.425 9.84666 639.231 14.228C644.036 18.468 647.781 23.6267 650.467 29.704C653.152 35.7813 654.495 42.4947 654.495 49.844V100.3ZM634.779 52.176C634.779 46.24 633.86 41.152 632.023 36.912C630.185 32.672 627.712 29.2093 624.603 26.524C621.493 23.6973 617.819 21.648 613.579 20.376C609.48 19.104 605.099 18.468 600.435 18.468C595.771 18.468 591.319 19.104 587.079 20.376C582.98 21.648 579.376 23.6973 576.267 26.524C573.299 29.2093 570.896 32.672 569.059 36.912C567.221 41.152 566.303 46.24 566.303 52.176V97.968C566.303 103.904 567.221 108.992 569.059 113.232C570.896 117.472 573.369 120.935 576.479 123.62C579.588 126.305 583.192 128.284 587.291 129.556C591.531 130.828 595.912 131.464 600.435 131.464C605.099 131.464 609.48 130.828 613.579 129.556C617.677 128.284 621.281 126.305 624.391 123.62C627.641 120.935 630.185 117.472 632.023 113.232C633.86 108.992 634.779 103.904 634.779 97.968V52.176ZM770.306 111.324V1.932H789.81V148H770.942L719.85 71.68L699.074 39.668H697.59V148H678.086V1.932H696.53L749.318 81.008L768.822 111.324H770.306Z" fill="white"/>
    <path d="M874.935 1.932C882.284 1.932 888.573 3.27466 893.803 5.96C899.032 8.504 903.343 11.896 906.735 16.136C910.127 20.2347 912.6 24.8987 914.155 30.128C915.709 35.216 916.487 40.3747 916.487 45.604C916.487 49.7027 915.921 53.8013 914.791 57.9C913.66 61.8573 911.964 65.6027 909.703 69.136C907.441 72.6693 904.685 75.92 901.435 78.888C898.325 81.7147 894.721 83.976 890.623 85.672L917.971 148H896.347L871.543 89.276H833.807V148H814.303V1.932H874.935ZM896.983 45.604C896.983 37.6893 894.509 31.4 889.563 26.736C884.757 22.072 878.539 19.74 870.907 19.74H833.807V71.256H870.907C878.539 71.256 884.757 68.9947 889.563 64.472C894.509 59.9493 896.983 53.66 896.983 45.604ZM1036.96 45.604C1036.96 50.8333 1035.97 56.0627 1033.99 61.292C1032.15 66.38 1029.47 71.044 1025.94 75.284C1022.4 79.3827 1018.09 82.7747 1013 85.46C1007.92 88.004 1002.12 89.276 995.619 89.276H954.491V148H934.987V1.932H995.619C1002.69 1.932 1008.76 3.27466 1013.85 5.96C1019.08 8.504 1023.39 11.896 1026.78 16.136C1030.18 20.2347 1032.72 24.8987 1034.42 30.128C1036.11 35.216 1036.96 40.3747 1036.96 45.604ZM1017.67 45.604C1017.67 37.6893 1015.19 31.4 1010.25 26.736C1005.44 22.072 999.223 19.74 991.591 19.74H954.491V71.256H991.591C999.223 71.256 1005.44 68.9947 1010.25 64.472C1015.19 59.9493 1017.67 53.66 1017.67 45.604Z" fill="#FF0000"/>
</svg>