<svg width="23" height="19" viewBox="0 0 23 19" fill="none" xmlns="http://www.w3.org/2000/svg">
<path d="M0.00189866 3.77564V15.2244C-0.0285501 16.2901 0.306386 17.1731 1.0676 17.9038C1.82882 18.6346 2.71183 19 3.77754 19H19.0019C20.0676 19 20.9506 18.6346 21.7118 17.9038C22.4731 17.1731 22.808 16.2901 22.7775 15.2244V3.77564C22.808 2.70993 22.4731 1.82692 21.7118 1.09615C20.9506 0.365383 20.0676 0 19.0019 0H3.77754C2.71183 0 1.82882 0.365383 1.09805 1.09615C0.367283 1.82692 0.00189866 2.70993 0.00189866 3.77564ZM3.77754 1.88782H19.0019C19.5195 1.88782 19.9763 2.07051 20.3416 2.4359C20.707 2.80128 20.8897 3.25801 20.8897 3.77564V5.17628L11.3897 10.2917L1.88972 5.17628V3.77564C1.88972 3.25801 2.07241 2.80128 2.4378 2.4359C2.80318 2.07051 3.25991 1.88782 3.77754 1.88782ZM1.88972 7.36859L10.9634 12.2404C11.2375 12.3926 11.542 12.3926 11.816 12.2404L20.8897 7.36859V15.2244C20.8897 15.742 20.707 16.1987 20.3416 16.5641C19.9763 16.9295 19.5195 17.1122 19.0019 17.1122H3.77754C3.25991 17.1122 2.80318 16.9295 2.4378 16.5641C2.07241 16.1987 1.88972 15.742 1.88972 15.2244V7.36859Z" fill="#FCFCFC"/>
</svg>
