<svg width="20" height="20" viewBox="0 0 20 20" fill="none" xmlns="http://www.w3.org/2000/svg">
<path d="M12.4996 13.4644L18.0257 18.9906C18.1792 19.1441 18.3327 19.2098 18.53 19.2098C18.7274 19.2098 18.8809 19.1441 19.0125 19.0125C19.1441 18.8809 19.2098 18.7274 19.2098 18.53C19.2098 18.3327 19.1441 18.1792 18.9906 18.0257L1.18417 0.219292C1.03067 0.0657882 0.877162 0 0.679801 0C0.482439 0 0.328936 0.0657872 0.197362 0.197362C0.0657872 0.328936 0 0.48244 0 0.679801C0 0.877162 0.0657871 1.03067 0.21929 1.18417L4.64896 5.61384C4.03495 6.05242 3.48672 6.55679 3.02621 7.10501C2.34641 7.91639 1.84204 8.83741 1.49118 9.82421L1.40346 10.1312V10.3067C1.40346 10.4602 1.44732 10.5917 1.5131 10.7014C1.57889 10.811 1.71047 10.8987 1.8859 10.9426C2.06133 10.9865 2.23676 10.9645 2.4122 10.8768C2.58763 10.7891 2.69727 10.6575 2.7192 10.4821L2.80692 10.2628C3.092 9.45142 3.53058 8.6839 4.0788 7.98217C4.51738 7.43395 5.02175 6.95151 5.61384 6.57872L7.80674 8.77162C7.19273 9.12249 6.75415 9.62685 6.46907 10.2847C6.18399 10.9426 6.11821 11.6224 6.24978 12.3022C6.38135 12.982 6.68836 13.5741 7.19273 14.0785C7.6971 14.5828 8.28918 14.8898 8.96898 15.0214C9.64878 15.153 10.3286 15.0872 10.9645 14.8021C11.6005 14.517 12.1268 14.0785 12.4996 13.4644ZM11.4908 12.4557C11.3154 12.8943 11.0303 13.2232 10.6137 13.4425C10.197 13.6618 9.78036 13.7495 9.31985 13.6837C8.85934 13.6179 8.48654 13.4425 8.15761 13.1136C7.82867 12.7846 7.63131 12.3899 7.56552 11.9294C7.49974 11.4689 7.56552 11.0303 7.80674 10.6356C8.04796 10.2409 8.3769 9.95579 8.81548 9.78036L11.4908 12.4557ZM7.3243 4.38581L8.46461 5.56998C8.83741 5.50419 9.23213 5.48226 9.60492 5.48226C11.9075 5.48226 13.7495 6.31557 15.131 7.98217C15.6793 8.6839 16.1179 9.45142 16.4029 10.2628L16.4906 10.4821C16.5564 10.6575 16.6661 10.7891 16.8196 10.8768C16.9731 10.9645 17.1485 10.9865 17.3239 10.9426C17.4994 10.8987 17.631 10.7891 17.7187 10.6356C17.8064 10.4821 17.8283 10.3067 17.8064 10.1312L17.7187 9.82421C17.3678 8.83741 16.8634 7.91639 16.1836 7.10501C15.4819 6.22785 14.6486 5.54805 13.6837 5.04368C12.4776 4.42967 11.118 4.12266 9.60492 4.12266C8.79355 4.12266 8.02603 4.21038 7.3243 4.38581Z" fill="white" fill-opacity="0.45"/>
</svg>
