<svg width="17" height="12" viewBox="0 0 17 12" fill="none" xmlns="http://www.w3.org/2000/svg">
<path d="M1.36057 6.57607C1.33789 6.75748 1.22451 6.89354 1.0431 6.98424C0.861692 7.07495 0.680283 7.09762 0.498875 7.05227C0.317466 7.00692 0.181409 6.91622 0.11338 6.80284C0.0453521 6.68945 0 6.5534 0 6.39467V6.21326L0.0907043 5.89579C0.453522 4.87536 0.975073 3.92297 1.67803 3.08395C3.37874 1.02042 5.64635 0 8.48087 0C10.0455 0 11.4514 0.317466 12.6986 0.952397C13.6964 1.47395 14.5581 2.17691 15.2837 3.08395C15.9867 3.92297 16.5082 4.87536 16.871 5.89579L16.9617 6.21326C17.0298 6.39466 17.0071 6.57607 16.8937 6.73481C16.7803 6.89354 16.6443 7.00692 16.4629 7.05227C16.2815 7.09762 16.1 7.07495 15.9413 6.98424C15.7826 6.89354 15.6692 6.75748 15.6012 6.57607V6.53072C15.5105 6.25861 15.3971 6.00917 15.2837 5.75973C15.0116 5.1248 14.6488 4.53522 14.1952 3.991C12.7667 2.26761 10.8619 1.40592 8.48087 1.40592C6.09988 1.40592 4.19508 2.26761 2.76649 3.991C2.19958 4.71663 1.74606 5.5103 1.45127 6.34931L1.36057 6.57607ZM8.48087 4.26311C7.50579 4.26311 6.68945 4.60325 5.98649 5.30621C5.28354 6.00917 4.94339 6.82551 4.94339 7.80058C4.94339 8.77566 5.28354 9.592 5.98649 10.295C6.68945 10.9979 7.50579 11.3381 8.48087 11.3381C9.45594 11.3381 10.2723 10.9979 10.9752 10.295C11.6782 9.592 12.0183 8.77566 12.0183 7.80058C12.0183 6.82551 11.6782 6.00917 10.9752 5.30621C10.2723 4.60325 9.45594 4.26311 8.48087 4.26311ZM6.34931 7.80058C6.34931 7.18833 6.5534 6.68945 6.98424 6.28128C7.41509 5.87311 7.91396 5.66903 8.48087 5.66903C9.04777 5.66903 9.54664 5.87311 9.97749 6.28128C10.4083 6.68945 10.6124 7.18833 10.6124 7.77791C10.6124 8.36749 10.4083 8.86636 9.97749 9.29721C9.54664 9.72805 9.04777 9.93214 8.48087 9.93214C7.91396 9.93214 7.41509 9.72805 6.98424 9.29721C6.5534 8.86636 6.34931 8.36749 6.34931 7.80058Z" fill="white"/>
</svg>
