<svg width="19" height="21" viewBox="0 0 19 21" fill="transparent" xmlns="http://www.w3.org/2000/svg">
<path d="M16.1111 9.5H2.88889C1.84568 9.5 1 10.3457 1 11.3889V18C1 19.0432 1.84568 19.8889 2.88889 19.8889H16.1111C17.1543 19.8889 18 19.0432 18 18V11.3889C18 10.3457 17.1543 9.5 16.1111 9.5Z" stroke="white" stroke-width="1.5" stroke-linecap="round" stroke-linejoin="round"/>
<path d="M5 8V4.88889C5 3.85749 5.47411 2.86834 6.31802 2.13903C7.16193 1.40972 8.30653 1 9.5 1C10.6935 1 11.8381 1.40972 12.682 2.13903C13.5259 2.86834 14 3.85749 14 4.88889V8" stroke="white" stroke-width="1.5" stroke-linecap="square" stroke-linejoin="round"/>
</svg>
